# xmcd CD database file
#
# Track frame offsets:
#	182
#	34800
#	69832
#	102850
#	132332
#	161420
#	191807
#	215595
#
# Disc length: 3435 seconds
#
# Revision: 0
# Processed by: cddbd v1.5.2PL0 Copyright (c) Steve Scherf et al.
# Submitted via: CDex 1.51
#
DISCID=6d0d6908
DTITLE=Khan Jamal Quartet - Dark Warrior
DYEAR=1995
DGENRE=Jazz
TTITLE0=Johnny's In Malmo
TTITLE1=Just Us
TTITLE2=Principal
TTITLE3=Whisper Sweet
TTITLE4=Dark Warrior
TTITLE5=Hucksterman 
TTITLE6=Space Traveller
TTITLE7=Hucksterman (take 2)
EXTD=YEAR: 1995
EXTT0=
EXTT1=
EXTT2=
EXTT3=
EXTT4=
EXTT5=
EXTT6=
EXTT7=
PLAYORDER=
